PathFileType	4	(X/Y/Z)	 s01c0201.trc
DataRate	CameraRate	NumFrames	NumMarkers	Units	OrigDataRate	OrigDataStartFrame	OrigNumFrames
200	200	4	48	mm	200	1751	2000
Frame#	Time	racr			lacr			c7			jug			rlel			rdr			llel			ldr			s2			lic			ric			lasi			rasi			rpsi			lpsi			rgt			lgt			rth1			rth2			rth3			rth4			rlfc			rsh1			rsh2			rsh3			rsh4			rlmal			rmmal			rcal			rtoe			rmt5			lth1			lth2			lth4			lth3			llfc			lsh1			lsh2			lsh3			lsh4			llmal			lmmal			lcal			ltoe			lmt5			SBIKE			LBIKE			RBIKE			
		X1	Y1	Z1	X2	Y2	Z2	X3	Y3	Z3	X4	Y4	Z4	X5	Y5	Z5	X6	Y6	Z6	X7	Y7	Z7	X8	Y8	Z8	X9	Y9	Z9	X10	Y10	Z10	X11	Y11	Z11	X12	Y12	Z12	X13	Y13	Z13	X14	Y14	Z14	X15	Y15	Z15	X16	Y16	Z16	X17	Y17	Z17	X18	Y18	Z18	X19	Y19	Z19	X20	Y20	Z20	X21	Y21	Z21	X22	Y22	Z22	X23	Y23	Z23	X24	Y24	Z24	X25	Y25	Z25	X26	Y26	Z26	X27	Y27	Z27	X28	Y28	Z28	X29	Y29	Z29	X30	Y30	Z30	X31	Y31	Z31	X32	Y32	Z32	X33	Y33	Z33	X34	Y34	Z34	X35	Y35	Z35	X36	Y36	Z36	X37	Y37	Z37	X38	Y38	Z38	X39	Y39	Z39	X40	Y40	Z40	X41	Y41	Z41	X42	Y42	Z42	X43	Y43	Z43	X44	Y44	Z44	X45	Y45	Z45	X46	Y46	Z46	X47	Y47	Z47	X48	Y48	Z48	
1751	8.7550	519.730802	1240.762009	-67.659545	539.591527	1234.005321	-430.946568	512.466995	1356.605253	-250.859342	496.375812	1190.157338	-248.970088	459.366698	977.925993	46.862011	651.382461	868.697427	-56.651583	469.562393	979.446453	-560.409397	656.894384	878.131702	-441.099807	-15.595046	1151.724331	-262.959141	153.002638	1163.742884	-435.043517	129.605563	1161.961394	-98.970953	160.109253	1115.759298	-408.490249	163.210506	1117.154424	-127.505846	12.010340	1192.573335	-212.059256	10.904482	1195.905376	-316.215565	86.683892	1039.241345	-78.660797	117.288928	1039.436299	-456.907934	165.831052	928.792961	-61.188828	217.908076	864.645240	-66.631812	269.508243	790.981745	-78.841041	262.317203	896.733097	-80.432878	315.200351	684.667560	-97.345243	281.786901	571.376484	-61.200153	272.902490	487.004092	-64.010790	255.267792	400.160687	-72.341735	320.826516	480.813404	-101.526047	219.485143	277.951423	-90.285881	265.884847	290.713507	-164.583308	178.295412	255.830377	-141.871090	443.299677	203.945811	-132.001216	337.934820	182.917391	-60.143999	219.084075	972.348970	-451.449622	307.344037	957.716456	-450.511379	317.190739	1009.141166	-435.653335	387.706388	932.839157	-432.463002	464.098542	851.899502	-399.206400	368.799067	797.098827	-435.401857	302.899628	741.556645	-428.864767	235.379620	689.953480	-417.514045	338.609191	703.101086	-396.985780	137.666645	613.356663	-403.755868	164.171000	601.967484	-322.703772	79.907868	623.925198	-359.462099	252.012722	404.619866	-371.988835	165.954361	470.873080	-435.968263	-223.144560	893.657455	-249.846210	-12.098948	84.506808	-453.812713	-20.295599	80.820288	-53.801977	
1752	8.7600	520.475832	1240.801161	-69.464539	538.505016	1233.970627	-432.859827	512.146420	1356.569199	-252.696559	496.452988	1190.285715	-250.653363	459.644714	978.568211	46.421174	651.402908	868.756529	-56.595262	468.822975	978.393235	-560.720075	656.562203	878.217204	-441.060329	-15.544559	1151.020587	-262.464897	152.630242	1163.384729	-435.335747	130.399339	1161.349927	-99.459452	160.153916	1115.556359	-408.451803	163.173174	1116.282608	-127.548368	11.918924	1192.178575	-211.553994	10.894811	1195.045240	-315.844692	85.618736	1038.466508	-78.374097	116.894396	1040.505660	-457.383517	162.533959	927.292289	-59.712619	213.406971	862.041911	-65.020230	263.425238	787.496583	-76.669445	258.479820	893.419785	-78.299154	307.366070	679.958978	-94.405910	273.561404	567.085144	-58.650878	264.890843	482.668396	-61.645037	247.492708	395.794209	-70.359984	313.295081	476.634108	-98.567049	212.323461	272.712410	-89.796797	258.353416	286.012614	-162.752292	171.483972	252.433049	-140.891485	435.339217	196.017267	-132.448701	329.763221	176.161575	-60.388764	219.848535	975.194765	-451.551928	308.442486	962.922720	-451.232462	316.850977	1014.572614	-436.070301	389.593760	940.320655	-433.135903	468.967429	861.530988	-400.117577	374.738720	806.206327	-434.970589	309.364972	750.085443	-428.638740	242.369256	697.508902	-416.918756	345.472263	711.858094	-396.870169	145.020383	619.687868	-403.432002	171.892903	608.931026	-322.118415	87.054387	629.916493	-358.957040	260.957932	412.405670	-372.296803	174.163814	478.068675	-435.410332	-223.172279	893.661596	-249.795274	-12.110911	84.488426	-453.806182	-20.298600	80.793640	-53.793654	
1753	8.7650	521.337912	1240.914240	-71.251174	537.424066	1233.893525	-434.792734	511.900260	1356.553837	-254.549671	496.489604	1190.406575	-252.457075	459.909940	979.387744	45.957926	651.414254	868.844822	-56.537391	467.983437	977.530693	-561.055451	656.230280	878.325631	-441.115333	-15.555344	1150.411192	-261.902516	152.351536	1163.210793	-435.699914	131.267792	1160.789929	-99.908480	160.166400	1115.461182	-408.433756	163.133171	1115.681177	-127.557896	11.810399	1191.876199	-211.082978	10.834273	1194.320416	-315.432353	84.545883	1037.769121	-78.117214	116.494980	1041.350668	-457.654925	159.266080	926.119143	-58.245465	208.895543	859.768018	-63.063155	257.569680	784.458549	-74.079265	254.519033	890.952068	-75.728436	299.872928	675.863213	-91.366826	265.387160	563.401007	-56.060014	256.842592	478.918948	-59.313690	239.453206	392.135791	-68.314394	305.662984	473.030457	-95.272824	205.445069	269.469411	-88.679387	250.681294	282.029184	-160.865507	164.395277	249.604624	-139.733340	427.056745	188.677966	-132.832460	321.665068	170.365413	-59.966823	220.322615	977.699716	-451.730240	309.204793	967.902543	-451.921592	316.434659	1019.829586	-436.774538	391.056225	947.444718	-433.917126	473.877749	871.358799	-400.248480	380.124646	816.075608	-435.484424	315.500787	758.365366	-428.343281	249.162221	705.003688	-416.675194	352.141641	720.422651	-396.899617	152.255113	625.421986	-403.108060	179.503713	615.349783	-321.806491	94.065401	635.104243	-358.559809	269.655622	418.803861	-371.099211	182.574892	483.994381	-434.966751	-223.198836	893.679044	-249.708735	-12.101776	84.511559	-453.781286	-20.312572	80.810551	-53.774737	
1754	8.7700	522.139698	1241.001496	-73.220403	536.333629	1233.745860	-436.813106	511.781051	1356.470536	-256.466426	496.494444	1190.377351	-254.324488	460.147192	980.040984	45.492587	651.437340	868.935639	-56.458994	467.069096	976.741377	-561.426631	655.866871	878.426404	-441.176684	-15.594394	1149.917443	-261.503540	152.229096	1163.186637	-435.972625	132.070121	1160.369163	-100.349021	160.145540	1115.471256	-408.433222	163.023893	1115.181732	-127.615886	11.692060	1191.616594	-210.708997	10.726297	1193.748725	-315.004733	83.425004	1037.130637	-77.689562	116.037928	1041.976659	-457.859202	156.042320	925.270622	-56.693773	204.500509	858.078141	-60.988986	251.931315	781.855213	-71.373147	250.606075	887.875509	-74.113485	292.591903	672.435438	-88.228261	257.452919	560.326095	-53.464901	248.740513	475.822070	-56.886128	231.336644	389.115391	-66.297333	297.781749	469.817279	-92.000297	198.121711	266.415592	-87.548275	242.925967	278.754729	-158.970700	156.444116	248.534835	-136.909796	418.430556	181.737346	-133.101867	313.094888	165.015660	-59.739060	220.642643	979.975670	-451.907591	309.756633	972.428845	-452.350219	315.846585	1024.726916	-437.396008	392.205180	954.146548	-434.586153	477.942145	881.114452	-400.568829	385.484465	824.450442	-435.049346	321.283161	766.402049	-428.166516	255.703424	712.199515	-416.485586	358.530516	728.860643	-397.097038	159.352290	630.515458	-402.795826	186.757986	621.215027	-321.160206	100.885588	639.507380	-358.105203	279.394506	425.564713	-370.813314	191.595365	489.669752	-434.550542	-223.235121	893.672999	-249.634603	-12.127560	84.525453	-453.762556	-20.324967	80.805245	-53.763256	
